<svg fill="none" height="24" viewBox="0 0 24 24" width="24" xmlns="http://www.w3.org/2000/svg"><g stroke="#C7C7C7" stroke-linecap="round" stroke-linejoin="round"><g stroke-width="1.5"><path d="m11.02 19.5h-3.52c-.62 0-1.17-.02-1.66-.09-2.63-.29-3.34-1.53-3.34-4.91v-5c0-3.38.71-4.62 3.34-4.91.49-.07 1.04-.09 1.66-.09h3.46"/><path d="m15.02 4.5h1.48c.62 0 1.17.02 1.66.09 2.63.29 3.34 1.53 3.34 4.91v5c0 3.38-.71 4.62-3.34 4.91-.49.07-1.04.09-1.66.09h-1.48"/><path d="m15 2v20"/></g><path d="m11.0945 12h.009" stroke-width="2"/><path d="m7.09448 12h.00898" stroke-width="2"/></g></svg>